<svg width="59" height="59" viewBox="0 0 59 59" fill="none" xmlns="http://www.w3.org/2000/svg">
<rect width="59" height="59" rx="8" fill="#0152FF"/>
<path d="M45.6343 17.0385C45.5697 16.5743 45.2358 16.1925 44.7843 16.067L30.3153 12.0432C30.109 11.9858 29.8911 11.9858 29.6847 12.0432L15.2157 16.067C14.7642 16.1925 14.4303 16.5742 14.3656 17.0385C14.2817 17.6419 12.3672 31.9001 17.2778 38.9931C22.1826 46.0777 29.4182 47.8932 29.7238 47.9671C29.8146 47.9891 29.9071 47.9999 30 47.9999C30.0929 47.9999 30.1854 47.9889 30.2762 47.9671C30.582 47.8932 37.8176 46.0777 42.7222 38.9931C47.6328 31.9003 45.7183 17.6421 45.6343 17.0385ZM39.3307 25.3626L29.4613 35.2319C29.2317 35.4615 28.9305 35.5765 28.6295 35.5765C28.3285 35.5765 28.0273 35.4617 27.7976 35.2319L21.6955 29.1298C21.4748 28.9092 21.3509 28.6099 21.3509 28.2979C21.3509 27.9859 21.475 27.6866 21.6955 27.4661L22.9071 26.2545C23.3666 25.7952 24.1115 25.795 24.5708 26.2545L28.6295 30.3131L36.4554 22.4871C36.6759 22.2664 36.9752 22.1425 37.2872 22.1425C37.5992 22.1425 37.8985 22.2664 38.1191 22.4871L39.3307 23.6987C39.7901 24.1582 39.7901 24.9031 39.3307 25.3626Z" fill="white"/>
</svg>
