<svg width="59" height="59" viewBox="0 0 59 59" fill="none" xmlns="http://www.w3.org/2000/svg">
<rect width="59" height="59" rx="8" fill="#0152FF"/>
<path fill-rule="evenodd" clip-rule="evenodd" d="M32.5826 26.5976L35.7797 24.0502L31.6959 23.868C31.5272 23.8603 31.3788 23.7527 31.3197 23.5945L29.8847 19.7667L28.4503 23.5945C28.3905 23.7527 28.2429 23.8603 28.0741 23.868L23.9904 24.0502L27.1875 26.5976C27.3197 26.703 27.3759 26.8767 27.3309 27.0398L26.2418 30.9795L29.6463 28.7309C29.6611 28.7203 29.6772 28.7112 29.6934 28.7027C29.7539 28.6718 29.8193 28.657 29.8847 28.657H29.8854C29.9501 28.657 30.0147 28.6718 30.0759 28.7027C30.0921 28.7112 30.1083 28.721 30.1237 28.7316L33.5283 30.9802L32.4391 27.0406C32.3948 26.8774 32.4511 26.703 32.5826 26.5976ZM22.6383 45.0159L27.4856 35.7389L26.7572 34.7763C26.4232 34.3348 25.9162 34.1252 25.3678 34.2012L23.2844 34.4888C22.544 34.5914 21.8451 34.3559 21.3171 33.8278C21.2552 33.7659 21.1976 33.7013 21.1434 33.6352L16.7925 41.9623L21.7495 38.8059C21.8768 38.7251 22.0378 38.7181 22.1714 38.7877C22.305 38.8573 22.3915 38.9937 22.3971 39.1441L22.6383 45.0159ZM36.4863 34.4888L34.4029 34.2012C33.8538 34.1252 33.3476 34.3355 33.0136 34.7763L32.2844 35.7389L37.1318 45.0159L37.3722 39.1448C37.3786 38.9944 37.4651 38.858 37.5987 38.7884C37.7322 38.7188 37.8933 38.7258 38.0205 38.8066L42.9776 41.963L38.6273 33.6345C38.5739 33.7013 38.5162 33.7652 38.4544 33.8271C37.9249 34.3559 37.2267 34.5914 36.4863 34.4888ZM32.0116 23.0384L36.9412 23.2577C37.117 23.2655 37.2696 23.3815 37.3237 23.5488C37.3779 23.7162 37.323 23.8997 37.1852 24.0094L33.3265 27.0841L34.6413 31.8401C34.6877 32.0095 34.6244 32.1902 34.4824 32.2936C34.4086 32.347 34.3214 32.3738 34.2342 32.3738C34.1533 32.3738 34.0725 32.3505 34.0022 32.3041L29.8847 29.5845L25.7679 32.3041C25.6209 32.4012 25.4297 32.397 25.2876 32.2936C25.1449 32.1902 25.0823 32.0095 25.1287 31.8401L26.4436 27.0841L22.5841 24.0094C22.447 23.8997 22.3915 23.7162 22.4463 23.5488C22.5004 23.3815 22.653 23.2655 22.8288 23.2577L27.7577 23.0384L29.4902 18.4181C29.5162 18.3478 29.5598 18.288 29.6133 18.243C29.64 18.2213 29.6688 18.2023 29.7012 18.1868C29.7405 18.1678 29.782 18.1552 29.8256 18.1488H29.8263H29.8277C29.8453 18.1467 29.8622 18.1453 29.8797 18.1446H29.8804H29.8819H29.8826C29.9044 18.1446 29.9269 18.146 29.9494 18.1495H29.9501C29.9937 18.1566 30.0351 18.1699 30.0745 18.1896C30.1019 18.2037 30.1279 18.2205 30.1512 18.2395C30.2074 18.2852 30.2524 18.3464 30.2798 18.4188L32.0116 23.0384ZM36.6016 33.6527L34.5183 33.3652C33.6583 33.2463 32.8645 33.5754 32.3407 34.2673L31.0708 35.9442C30.779 36.3295 30.3684 36.5334 29.8847 36.5334C29.4009 36.5334 28.991 36.3295 28.6992 35.9442L27.4294 34.2673C26.9758 33.6689 26.3198 33.342 25.5942 33.342C25.4817 33.342 25.3671 33.3497 25.2518 33.3652L23.1684 33.6527C22.6889 33.7188 22.2551 33.5733 21.9133 33.2309C21.5709 32.8891 21.4247 32.4546 21.4915 31.9758L21.779 29.8924C21.8979 29.0325 21.5688 28.2394 20.8769 27.7148L19.2007 26.445C18.8147 26.1532 18.6108 25.7426 18.6108 25.2588C18.6108 24.7751 18.8147 24.3652 19.2007 24.0727L20.8769 22.8028C21.5688 22.279 21.8979 21.4852 21.779 20.6252L21.4915 18.5419C21.4247 18.063 21.5709 17.6285 21.9133 17.2868C22.2551 16.9451 22.6889 16.7995 23.1684 16.8656L25.2518 17.1532C26.1117 17.272 26.9048 16.943 27.4294 16.2511L28.6985 14.5748C28.991 14.1888 29.4009 13.9849 29.8847 13.9849C30.3684 13.9849 30.779 14.1888 31.0708 14.5741L32.3407 16.2511C32.8645 16.943 33.6583 17.272 34.5183 17.1532L36.6016 16.8656C37.0805 16.7995 37.515 16.9451 37.8567 17.2868C38.1991 17.6292 38.3447 18.063 38.2786 18.5426L37.991 20.6259C37.8722 21.4859 38.2012 22.279 38.8924 22.8035L40.5694 24.0734C40.9547 24.3652 41.1586 24.7758 41.1586 25.2595C41.1586 25.7433 40.9547 26.1532 40.5694 26.4457L38.8924 27.7155C38.2012 28.2394 37.8722 29.0332 37.991 29.8931L38.2786 31.9765C38.3447 32.456 38.1991 32.8898 37.8567 33.2316C37.515 33.5733 37.0805 33.7188 36.6016 33.6527Z" fill="white"/>
</svg>
