<svg width="59" height="59" viewBox="0 0 59 59" fill="none" xmlns="http://www.w3.org/2000/svg">
<rect width="59" height="59" rx="8" fill="#0152FF"/>
<path d="M45.1995 33.452C44.8579 33.2477 44.436 33.2388 44.0871 33.4311C39.9986 35.6547 35.1272 36.8314 29.9999 36.8314C24.8726 36.8314 20.0012 35.6547 15.9126 33.4311C15.5643 33.2399 15.1425 33.2476 14.8002 33.452C14.4592 33.654 14.25 34.0221 14.25 34.4187C14.25 40.6666 21.3153 45.75 30 45.75C38.6847 45.75 45.75 40.6666 45.75 34.4187C45.75 34.0221 45.5408 33.654 45.1995 33.452Z" fill="white"/>
<path d="M21 21H17.625C17.0038 21 16.5 21.5032 16.5 22.125V32.4676C17.909 33.2302 19.4188 33.8584 21 34.3567V21Z" fill="white"/>
<path d="M27.75 35.618V21.0528C27.75 20.4023 28.2773 19.875 28.9278 19.875H40.125V18.75C40.125 18.1287 39.6213 17.625 39 17.625H26.625C26.0038 17.625 25.5 18.1287 25.5 18.75V35.3719C26.2412 35.4797 26.9906 35.5642 27.75 35.618Z" fill="white"/>
<path d="M24.375 35.1945V17.6778C24.375 17.0273 24.9023 16.5 25.5528 16.5H36.75V15.375C36.75 14.7537 36.2463 14.25 35.625 14.25H23.25C22.6288 14.25 22.125 14.7537 22.125 15.375V34.5C22.125 34.5668 22.1519 34.6249 22.163 34.6884C22.8884 34.8826 23.624 35.0559 24.375 35.1945Z" fill="white"/>
<path d="M42.375 21H30C29.3788 21 28.875 21.5011 28.875 22.1202V35.5556C29.4619 35.597 30.0555 35.6139 30.6504 35.625C35.3281 35.5307 39.7578 34.4342 43.5 32.4183V22.1202C43.5 21.5011 42.9962 21 42.375 21ZM40.125 33.3221H32.25C31.939 33.3221 31.6875 33.0716 31.6875 32.762C31.6875 32.4524 31.939 32.2018 32.25 32.2018H40.125C40.436 32.2018 40.6875 32.4524 40.6875 32.762C40.6875 33.0717 40.436 33.3221 40.125 33.3221ZM40.125 29.9616H32.25C31.939 29.9616 31.6875 29.7111 31.6875 29.4015C31.6875 29.0919 31.939 28.8414 32.25 28.8414H40.125C40.436 28.8414 40.6875 29.0919 40.6875 29.4015C40.6875 29.7111 40.436 29.9616 40.125 29.9616ZM40.125 26.601H32.25C31.939 26.601 31.6875 26.3505 31.6875 26.0409C31.6875 25.7313 31.939 25.4808 32.25 25.4808H40.125C40.436 25.4808 40.6875 25.7313 40.6875 26.0409C40.6875 26.3505 40.436 26.601 40.125 26.601Z" fill="white"/>
</svg>
