<svg width="59" height="59" viewBox="0 0 59 59" fill="none" xmlns="http://www.w3.org/2000/svg">
<rect width="59" height="59" rx="8" fill="#0152FF"/>
<path fill-rule="evenodd" clip-rule="evenodd" d="M41.2235 32.2713C37.7356 32.2713 34.8955 29.4395 34.8955 25.9516C34.8955 22.4637 37.7356 19.6235 41.2235 19.6235C44.7114 19.6235 47.5433 22.4637 47.5433 25.9516C47.5433 29.4395 44.7114 32.2713 41.2235 32.2713ZM39.9945 28.4429C40.0609 28.4429 40.1273 28.4097 40.1772 28.3599L44.6284 23.917C44.7363 23.809 44.7363 23.6429 44.6284 23.535C44.5287 23.427 44.3543 23.427 44.2464 23.535L39.9945 27.7952L38.1924 25.9931C38.0844 25.8851 37.9183 25.8851 37.8104 25.9931C37.7107 26.101 37.7107 26.2671 37.8104 26.3751L39.8035 28.3599C39.8533 28.4097 39.9197 28.4429 39.9945 28.4429Z" fill="white"/>
<path fill-rule="evenodd" clip-rule="evenodd" d="M20.3294 22.0235C20.1301 22.0235 19.9391 21.8907 19.8726 21.6913C19.856 21.6415 18.1287 16.1606 22.4221 13.254C23.6512 12.4235 24.9965 12 26.4166 12C28.9661 12 30.8512 13.3702 30.9259 13.4284C35.3273 16.7502 32.919 21.708 32.8941 21.7578C32.7944 21.9488 32.5868 22.0567 32.3709 22.0152C32.1633 21.9737 32.0055 21.791 31.9889 21.5751C31.7813 18.6602 29.946 16.9163 27.0643 16.9163C24.1328 16.9163 20.836 18.818 20.811 21.5502C20.811 21.7827 20.6366 21.982 20.4041 22.0152C20.3792 22.0235 20.3543 22.0235 20.3294 22.0235Z" fill="white"/>
<path fill-rule="evenodd" clip-rule="evenodd" d="M26.4 30.328C22.7875 30.328 19.8477 27.3882 19.8477 23.7758V21.5252C19.8477 21.2678 20.0636 21.0519 20.3294 21.0519C20.5951 21.0519 20.8027 21.2678 20.8027 21.5252V23.7758C20.8027 26.8567 23.3107 29.3647 26.4 29.3647C29.4809 29.3647 31.9889 26.8567 31.9889 23.7758V21.5418C31.9889 21.2761 32.2048 21.0685 32.4622 21.0685C32.728 21.0685 32.9439 21.2761 32.9439 21.5418V23.7758C32.9439 27.3882 30.0041 30.328 26.4 30.328Z" fill="white"/>
<path fill-rule="evenodd" clip-rule="evenodd" d="M40.1605 48H35.128V40.4429C35.128 40.2934 35.0117 40.1771 34.8623 40.1771C34.7128 40.1771 34.5965 40.2934 34.5965 40.4429V48H18.4941V40.4429C18.4941 40.2934 18.3778 40.1771 18.2284 40.1771C18.0789 40.1771 17.9626 40.2934 17.9626 40.4429V48H12.9301C12.6726 48 12.4567 47.7841 12.4567 47.5183V39.8367C12.4567 35.3356 16.119 31.6733 20.62 31.6733H22.2228C22.3723 31.6733 22.5135 31.7398 22.6048 31.8643L26.5495 37.0879L30.4858 31.8643C30.5771 31.7398 30.7183 31.6733 30.8678 31.6733H32.4706C36.9716 31.6733 40.6339 35.3356 40.6339 39.8367V47.5183C40.6339 47.7841 40.418 48 40.1605 48Z" fill="white"/>
<path fill-rule="evenodd" clip-rule="evenodd" d="M30.8678 32.6284C30.7017 32.6284 30.5439 32.5453 30.4526 32.3875L28.7418 29.4145C28.609 29.1903 28.6837 28.8913 28.9162 28.7585C29.1405 28.6339 29.4394 28.7086 29.5723 28.9412L31.283 31.9142C31.4159 32.1384 31.3412 32.429 31.1086 32.5619C31.0339 32.6117 30.9508 32.6284 30.8678 32.6284Z" fill="white"/>
<path fill-rule="evenodd" clip-rule="evenodd" d="M22.2228 32.6284C22.1398 32.6284 22.0567 32.6118 21.982 32.5619C21.7494 32.4291 21.6747 32.1384 21.8076 31.9142L23.4602 29.0491C23.593 28.8249 23.8837 28.7419 24.1079 28.8747C24.3405 29.0076 24.4152 29.2983 24.2906 29.5308L22.638 32.3875C22.5467 32.5453 22.3889 32.6284 22.2228 32.6284Z" fill="white"/>
</svg>
