<svg width="77" height="78" viewBox="0 0 77 78" fill="none" xmlns="http://www.w3.org/2000/svg">
<path d="M38.2302 0.704865C17.1696 0.704865 0.103691 17.8357 0.103691 38.9763C0.103691 46.0232 2.01829 52.6429 5.32747 58.3137L31.0682 32.4751H16.366C14.7114 32.4751 13.2222 31.4786 12.584 29.9363C11.9458 28.3941 12.3004 26.6383 13.4822 25.452L23.4807 15.4155C24.2371 14.6563 25.3007 14.2054 26.388 14.2054H54.6343C58.7708 14.2054 62.1508 17.5984 62.1508 21.7506V50.2703C62.1508 51.3617 61.7017 52.4057 60.9454 53.1887L50.9233 63.2488C49.7414 64.4352 47.9923 64.7911 46.4559 64.1505C44.9195 63.5098 43.9267 62.015 43.9267 60.3542V45.43L17.9969 71.4109C23.8589 75.1123 30.7845 77.2714 38.2302 77.2714C59.2908 77.2714 76.3803 60.1406 76.3803 38.9763C76.3803 17.8357 59.2908 0.704865 38.2302 0.704865Z" fill="#0152FF"/>
</svg>
