<svg width="17" height="17" viewBox="0 0 17 17" fill="none" xmlns="http://www.w3.org/2000/svg">
<g clip-path="url(#clip0_15_173)">
<path d="M12.3514 7.43722C10.7405 7.43722 9.42965 8.74803 9.42965 10.359C9.42965 11.9699 10.7405 13.2808 12.3514 13.2808C13.9624 13.2808 15.2732 11.9699 15.2732 10.359C15.2732 8.74803 13.9624 7.43722 12.3514 7.43722ZM13.5902 9.89018C12.7408 11.1644 12.9817 10.8031 12.5277 11.4839C12.3647 11.7284 12.0345 11.7933 11.791 11.631L10.9941 11.0997C10.7501 10.937 10.6843 10.6073 10.847 10.363C11.0097 10.1189 11.3394 10.0532 11.5838 10.2159L11.9384 10.4523C12.7856 9.18162 12.7401 9.21678 12.8826 9.1355C13.3665 8.85561 13.9011 9.42316 13.5902 9.89018ZM9.96088 13.5444V16.4681C9.96088 16.8752 10.4017 17.1317 10.7557 16.9293L12.3514 16.0176L13.9471 16.9293C14.2997 17.1314 14.7419 16.8763 14.7419 16.4681V13.5444C13.3266 14.6092 11.3782 14.6108 9.96088 13.5444ZM13.4139 6.51886V1.15377C13.4139 0.517617 12.8963 0 12.2601 0H2.88057C2.24442 0 1.72681 0.517617 1.72681 1.15377V13.4551C1.72681 14.0912 2.24442 14.6088 2.88057 14.6088H8.89842C8.89842 12.3228 8.89486 12.4643 8.90672 12.3591C7.12836 9.31024 9.96011 5.55972 13.4139 6.51886ZM4.91419 2.65615H9.42965C9.72315 2.65615 9.96088 2.89388 9.96088 3.18738C9.96088 3.48089 9.72315 3.71861 9.42965 3.71861H4.91419C4.62068 3.71861 4.38296 3.48089 4.38296 3.18738C4.38296 2.89388 4.62068 2.65615 4.91419 2.65615ZM7.57034 7.96845H4.91419C4.62068 7.96845 4.38296 7.73073 4.38296 7.43722C4.38296 7.14372 4.62068 6.90599 4.91419 6.90599H7.57034C7.86384 6.90599 8.10157 7.14372 8.10157 7.43722C8.10157 7.73073 7.86384 7.96845 7.57034 7.96845ZM4.91419 5.84353C4.62068 5.84353 4.38296 5.60581 4.38296 5.3123C4.38296 5.0188 4.62068 4.78107 4.91419 4.78107H9.42965C9.72315 4.78107 9.96088 5.0188 9.96088 5.3123C9.96088 5.60581 9.72315 5.84353 9.42965 5.84353H4.91419Z" fill="#20C4F4"/>
</g>
<defs>
<clipPath id="clip0_15_173">
<rect width="17" height="17" fill="white"/>
</clipPath>
</defs>
</svg>
