<svg width="17" height="17" viewBox="0 0 17 17" fill="none" xmlns="http://www.w3.org/2000/svg">
<g clip-path="url(#clip0_15_119)">
<path fill-rule="evenodd" clip-rule="evenodd" d="M14.7624 13.4349C14.676 13.5209 14.5719 13.631 14.4616 13.7473C14.1861 14.0397 13.842 14.4031 13.6264 14.5504C12.4917 15.3258 10.9736 14.9548 9.89981 14.5074C8.48329 13.9172 6.94109 12.8293 5.55636 11.4444C4.17034 10.0594 3.08255 8.5167 2.49235 7.101C2.04547 6.02697 1.67368 4.50861 2.44918 3.37365C2.59645 3.15783 2.96068 2.81427 3.25262 2.5383C3.36941 2.42826 3.47859 2.32428 3.56492 2.23824C3.71819 2.08573 3.9256 2.00012 4.14181 2.00012C4.35802 2.00012 4.56543 2.08573 4.7187 2.23824L6.80652 4.32545C6.95894 4.4787 7.04449 4.68606 7.04449 4.90221C7.04449 5.11835 6.95894 5.32571 6.80652 5.47897L6.23777 6.04658C6.04782 6.23513 5.92384 6.47997 5.88427 6.74467C5.84471 7.00937 5.89167 7.27977 6.01816 7.51563C6.80044 8.9921 8.00814 10.1996 9.48475 10.9816C9.72055 11.1081 9.9909 11.155 10.2555 11.1153C10.5201 11.0757 10.7649 10.9517 10.9533 10.7617L11.5206 10.194C11.6739 10.0415 11.8813 9.95592 12.0975 9.95592C12.3137 9.95592 12.5212 10.0415 12.6744 10.194L14.7624 12.2816C14.9148 12.4348 15.0004 12.6421 15.0004 12.8582C15.0004 13.0743 14.9148 13.2817 14.7624 13.4349Z" fill="#20C4F4"/>
</g>
<defs>
<clipPath id="clip0_15_119">
<rect width="13" height="13" fill="white" transform="translate(2 2)"/>
</clipPath>
</defs>
</svg>
