<svg width="199" height="82" viewBox="0 0 199 82" fill="none" xmlns="http://www.w3.org/2000/svg">
<path d="M94.879 22.5879H99.8427C101.852 22.5879 103.199 23.2285 103.199 25.1978C103.199 26.2656 102.703 26.9536 101.757 27.4044C103.057 27.7841 103.696 28.7569 103.696 30.0856C103.696 32.2447 101.876 33.1463 99.9846 33.1463H94.879V22.5879ZM97.1954 26.8587H99.5355C100.363 26.8587 100.954 26.4791 100.954 25.6012C100.954 24.6047 100.174 24.3911 99.37 24.3911H97.1954V26.8587ZM97.1954 31.3431H99.6773C100.575 31.3431 101.379 31.0584 101.379 29.9432C101.379 28.8518 100.717 28.4247 99.7009 28.4247H97.1718V31.3431H97.1954Z" fill="white"/>
<path d="M111.259 29.2551L114.214 33.1701H111.378L108.73 29.3738H107.596V33.1701H105.256V22.5879H110.007C112.654 22.5879 113.67 24.2725 113.67 25.9808C113.67 27.4282 112.914 28.8755 111.165 29.2551H111.259ZM107.596 24.3911V27.5705H109.392C110.503 27.5705 111.425 27.3095 111.425 25.9808C111.425 24.6047 110.503 24.3911 109.392 24.3911H107.596Z" fill="white"/>
<path d="M115.916 22.5879H118.232V33.1701H115.916V22.5879Z" fill="white"/>
<path d="M129.531 30.4889C128.633 32.1973 126.789 33.3361 124.756 33.3361C121.754 33.3361 119.32 30.8686 119.32 27.8552C119.32 24.8419 121.778 22.3981 124.756 22.3981C126.789 22.3981 128.585 23.537 129.531 25.1741C128.609 25.6486 128.538 25.6961 127.498 26.2181C126.954 25.269 125.938 24.6521 124.756 24.6521C122.983 24.6521 121.565 26.0757 121.565 27.8552C121.565 29.6585 122.983 31.0584 124.756 31.0584C125.938 31.0584 127.12 30.4652 127.545 29.4687H127.309C126.836 29.4687 125.749 29.4924 125.158 29.4924C124.874 29.4924 124.756 29.4924 124.756 29.4687V27.5231C126.245 27.5231 128.325 27.5468 130.145 27.5468C130.145 27.8315 130.098 29.7771 129.531 30.4889Z" fill="white"/>
<path d="M138.3 28.6145H133.407V33.1226H131.138V22.5167H133.407V26.3605H138.3V22.5405H140.569V33.1226H138.3V28.6145Z" fill="white"/>
<path d="M145.108 24.5335H141.751V22.5879H150.733V24.5335H147.4V33.1463H145.084V24.5335H145.108Z" fill="white"/>
<path d="M104.239 44.0844C103.341 45.7927 101.497 46.9316 99.4645 46.9316C96.4626 46.9316 94.028 44.464 94.028 41.4507C94.028 38.4374 96.4863 35.9935 99.4645 35.9935C101.497 35.9935 103.294 37.1324 104.239 38.7696C103.317 39.2441 103.246 39.2916 102.206 39.8136C101.663 38.8645 100.646 38.2476 99.4645 38.2476C97.6918 38.2476 96.2735 39.6712 96.2735 41.4507C96.2735 43.2539 97.6918 44.6538 99.4645 44.6538C100.646 44.6538 101.828 44.0607 102.254 43.0641H102.017C101.545 43.0641 100.457 43.0879 99.8664 43.0879C99.5827 43.0879 99.4645 43.0879 99.4645 43.0641V41.1185C100.954 41.1185 103.034 41.1423 104.854 41.1423C104.854 41.4033 104.783 43.3726 104.239 44.0844Z" fill="white"/>
<path d="M105.847 46.6706V36.1122H108.116V44.7013H113.529V46.6469H105.847V46.6706Z" fill="white"/>
<path d="M119.911 46.8841C116.909 46.8841 114.474 44.4403 114.474 41.4269C114.474 38.3899 116.909 35.946 119.911 35.946C122.912 35.946 125.371 38.3899 125.371 41.4269C125.371 44.4403 122.889 46.8841 119.911 46.8841ZM116.696 41.4032C116.696 43.159 118.161 44.6301 119.911 44.6301C121.66 44.6301 123.102 43.159 123.102 41.4032C123.102 39.6474 121.66 38.1526 119.911 38.1526C118.138 38.1764 116.696 39.6474 116.696 41.4032Z" fill="white"/>
<path d="M126.482 36.1597H131.445C133.455 36.1597 134.802 36.8003 134.802 38.7696C134.802 39.8373 134.306 40.5254 133.36 40.9762C134.66 41.3558 135.298 42.3287 135.298 43.6574C135.298 45.8165 133.478 46.7181 131.587 46.7181H126.482V36.1597ZM128.798 40.4542H131.138C131.965 40.4542 132.556 40.0746 132.556 39.1967C132.556 38.2002 131.8 37.9866 130.973 37.9866H128.798V40.4542ZM128.798 44.9386H131.28C132.178 44.9386 132.982 44.6539 132.982 43.5387C132.982 42.4473 132.32 42.0202 131.304 42.0202H128.774V44.9386H128.798Z" fill="white"/>
<path d="M135.96 46.7418L140.735 36.1833H143.075L147.779 46.7418H145.533L144.493 44.3928H139.175L138.064 46.7418H135.96ZM141.94 38.1764L140.167 42.2574H143.666L141.94 38.1764Z" fill="white"/>
<path d="M148.653 46.6706V36.1122H150.922V44.7013H156.335V46.6469H148.653V46.6706Z" fill="white"/>
<path d="M93.8626 60.3373L98.6373 49.7788H100.977L105.681 60.3373H103.436L102.396 57.9883H97.0772L95.9663 60.3373H93.8626ZM99.8427 51.7481L98.07 55.8292H101.568L99.8427 51.7481Z" fill="white"/>
<path d="M111.567 60.361C108.612 60.361 106.225 57.9646 106.225 54.9987C106.225 52.0566 108.612 49.6365 111.567 49.6365C113.599 49.6365 115.301 50.7516 116.2 52.3888C115.301 52.8633 115.23 52.9108 114.214 53.3853C113.694 52.4837 112.701 51.8668 111.567 51.8668C109.841 51.8668 108.447 53.2904 108.447 54.9987C108.447 56.7308 109.841 58.1307 111.567 58.1307C112.749 58.1307 113.789 57.4901 114.309 56.4935C115.301 57.0155 115.349 57.063 116.294 57.4901C115.396 59.2221 113.647 60.361 111.567 60.361Z" fill="white"/>
<path d="M122.511 60.361C119.556 60.361 117.169 57.9646 117.169 54.9987C117.169 52.0566 119.556 49.6365 122.511 49.6365C124.543 49.6365 126.245 50.7516 127.143 52.3888C126.245 52.8633 126.174 52.9108 125.158 53.3853C124.638 52.4837 123.645 51.8668 122.511 51.8668C120.785 51.8668 119.391 53.2904 119.391 54.9987C119.391 56.7308 120.785 58.1307 122.511 58.1307C123.692 58.1307 124.733 57.4901 125.253 56.4935C126.245 57.0155 126.293 57.063 127.238 57.4901C126.316 59.2221 124.591 60.361 122.511 60.361Z" fill="white"/>
<path d="M133.36 60.4797C130.358 60.4797 127.924 58.0358 127.924 55.0225C127.924 51.9855 130.358 49.5416 133.36 49.5416C136.362 49.5416 138.82 51.9855 138.82 55.0225C138.82 58.0358 136.338 60.4797 133.36 60.4797ZM130.122 54.9988C130.122 56.7546 131.587 58.2257 133.336 58.2257C135.086 58.2257 136.527 56.7546 136.527 54.9988C136.527 53.243 135.086 51.7482 133.336 51.7482C131.587 51.7482 130.122 53.243 130.122 54.9988Z" fill="white"/>
<path d="M149.102 56.3275C149.102 59.1984 147.424 60.5746 144.611 60.5746C141.751 60.5746 140.12 59.2221 140.12 56.3275V49.7551H142.437V56.3275C142.437 57.4901 142.72 58.629 144.611 58.629C146.266 58.629 146.786 57.9172 146.786 56.3275V49.7551H149.102V56.3275Z" fill="white"/>
<path d="M152.884 53.0294V60.3373H150.851V49.7076H153.499L158.203 56.3274V49.7076H160.164V60.3373H158.203L152.884 53.0294Z" fill="white"/>
<path d="M164.679 51.7244H161.323V49.7788H170.305V51.7244H166.972V60.3373H164.655V51.7244H164.679Z" fill="white"/>
<path d="M171.652 49.7551H173.968V60.3373H171.652V49.7551Z" fill="white"/>
<path d="M177.703 53.0294V60.3373H175.67V49.7076H178.318L183.021 56.3274V49.7076H184.983V60.3373H183.021L177.703 53.0294Z" fill="white"/>
<path d="M196.211 57.6798C195.313 59.3882 193.469 60.5271 191.436 60.5271C188.434 60.5271 186 58.0595 186 55.0462C186 52.0329 188.458 49.589 191.436 49.589C193.469 49.589 195.265 50.7279 196.211 52.365C195.289 52.8396 195.218 52.887 194.178 53.409C193.634 52.4599 192.618 51.843 191.436 51.843C189.663 51.843 188.245 53.2667 188.245 55.0462C188.245 56.8494 189.663 58.2493 191.436 58.2493C192.618 58.2493 193.8 57.6561 194.225 56.6596H193.989C193.516 56.6596 192.429 56.6833 191.838 56.6833C191.554 56.6833 191.436 56.6833 191.436 56.6596V54.714C192.925 54.714 195.005 54.7377 196.825 54.7377C196.802 54.9987 196.754 56.968 196.211 57.6798Z" fill="white"/>
<path d="M96.2263 65.1777C96.2263 65.7234 95.8008 66.0793 95.2099 66.0793H93.7444V62.9711H95.0444C95.6826 62.9711 96.0844 63.327 96.0844 63.8727C96.0844 64.11 95.9899 64.3235 95.7772 64.4659C96.0372 64.5845 96.2263 64.8692 96.2263 65.1777ZM94.9735 63.6591H94.548V64.1811H94.9735C95.1626 64.1811 95.2808 64.0862 95.2808 63.9201C95.2572 63.7541 95.1626 63.6591 94.9735 63.6591ZM95.399 65.1065C95.399 64.9404 95.2808 64.8455 95.0917 64.8455H94.548V65.3675H95.0917C95.2808 65.3675 95.399 65.2726 95.399 65.1065Z" fill="white"/>
<path d="M99.5827 66.0318V66.0793H98.7082L98.5191 65.6759H97.3608L97.1954 66.0793H96.3208V66.0318L97.7863 62.9236H98.1409L99.5827 66.0318ZM97.6445 64.9878H98.2118L97.9281 64.2286L97.6445 64.9878Z" fill="white"/>
<path d="M103.79 62.9711V66.0793H99.8664V62.9711H100.67V65.3438H101.426V62.9711H102.23V65.3438H102.986V62.9711H103.79Z" fill="white"/>
<path d="M107.997 65.059C107.997 65.6048 107.619 66.0793 106.887 66.0793H105.492V62.9711H107.714V63.6829H106.272V64.0862H106.863C107.643 64.0862 107.997 64.5133 107.997 65.059ZM107.194 65.059C107.194 64.8929 107.076 64.7506 106.863 64.7506H106.296V65.3675H106.863C107.076 65.3675 107.194 65.2014 107.194 65.059Z" fill="white"/>
<path d="M111.141 62.9474V66.0793H110.338V65.0354V64.5134L108.707 66.0793H108.447V62.9711H109.25V63.9439L109.227 64.4896L110.834 62.9474H111.141Z" fill="white"/>
<path d="M114.119 65.1777C114.119 65.6997 113.694 66.1268 112.914 66.1268C112.205 66.1268 111.661 65.7234 111.661 64.9641H112.394C112.418 65.2251 112.583 65.4149 112.89 65.4149C113.221 65.4149 113.339 65.2489 113.339 65.0828C113.339 64.893 113.198 64.7506 112.938 64.7506H112.607V64.1337H112.938C113.174 64.1337 113.316 64.0151 113.316 63.849C113.316 63.6829 113.174 63.5643 112.914 63.5643C112.654 63.5643 112.512 63.6829 112.489 63.8252H111.779C111.779 63.2321 112.229 62.8999 112.914 62.8999C113.718 62.8999 114.049 63.3507 114.049 63.8252C114.049 64.0862 113.907 64.2998 113.694 64.4421C113.954 64.5845 114.119 64.8692 114.119 65.1777Z" fill="white"/>
<path d="M117.287 62.9711V66.0793H116.483V64.8455H115.443V66.0793H114.639V62.9711H115.443V64.11H116.483V62.9711H117.287Z" fill="white"/>
<path d="M119.911 65.3438V66.0793H117.925V62.9711H119.863V63.7066H118.729V64.1574H119.769V64.8692H118.729V65.3438H119.911Z" fill="white"/>
<path d="M120.265 64.5133C120.265 63.5643 120.903 62.8999 121.825 62.8999C122.652 62.8999 123.172 63.3744 123.338 64.0862H122.534C122.416 63.8252 122.18 63.6829 121.872 63.6829C121.423 63.6829 121.116 64.0151 121.116 64.5133C121.116 65.0116 121.423 65.3438 121.872 65.3438C122.203 65.3438 122.463 65.154 122.582 64.893H123.385C123.243 65.6285 122.7 66.1268 121.849 66.1268C120.927 66.1268 120.265 65.4624 120.265 64.5133Z" fill="white"/>
<path d="M127.309 65.1777C127.309 65.7234 126.883 66.0793 126.293 66.0793H124.827V62.9711H126.127C126.765 62.9711 127.167 63.327 127.167 63.8727C127.167 64.11 127.073 64.3235 126.86 64.4659C127.143 64.5845 127.309 64.8692 127.309 65.1777ZM126.056 63.6591H125.631V64.1811H126.056C126.245 64.1811 126.363 64.0862 126.363 63.9201C126.34 63.7541 126.245 63.6591 126.056 63.6591ZM126.482 65.1065C126.482 64.9404 126.363 64.8455 126.174 64.8455H125.631V65.3675H126.174C126.363 65.3675 126.482 65.2726 126.482 65.1065Z" fill="white"/>
<path d="M131.729 65.3438V66.7436H130.973V66.0793H128.869V62.9711H129.673V65.3438H130.571V62.9711H131.375V65.3438H131.729Z" fill="white"/>
<path d="M134.944 62.9474V66.0793H134.14V65.0354V64.5134L132.509 66.0793H132.249V62.9711H133.053V63.9439L133.029 64.4896L134.636 62.9474H134.944Z" fill="white"/>
<path d="M137.638 65.7709V66.1268H136.882V65.7709C136.078 65.7471 135.416 65.3438 135.416 64.5133C135.416 63.6829 136.078 63.2795 136.882 63.2321V62.8999H137.638V63.2321C138.466 63.2558 139.104 63.6354 139.104 64.5133C139.08 65.3912 138.418 65.7471 137.638 65.7709ZM136.882 65.1065V63.9439C136.527 63.9676 136.22 64.0625 136.22 64.5133C136.22 64.9641 136.575 65.0828 136.882 65.1065ZM138.277 64.5133C138.277 64.0625 137.969 63.9439 137.615 63.9439V65.1065C137.946 65.0828 138.277 64.9641 138.277 64.5133Z" fill="white"/>
<path d="M142.082 64.0862C142.082 64.7743 141.609 65.2251 140.924 65.2251H140.38V66.0793H139.577V62.9711H140.947C141.609 62.9711 142.082 63.4219 142.082 64.0862ZM141.255 64.0862C141.255 63.8252 141.089 63.6591 140.829 63.6591H140.357V64.5133H140.829C141.089 64.5133 141.255 64.371 141.255 64.0862Z" fill="white"/>
<path d="M145.226 66.0318V66.0793H144.351L144.162 65.6759H143.004L142.838 66.0793H141.964V66.0318L143.429 62.9236H143.784L145.226 66.0318ZM143.311 64.9878H143.878L143.595 64.2286L143.311 64.9878Z" fill="white"/>
<path d="M148.275 66.0318V66.0792H147.353L146.739 65.059L146.124 66.0792H145.202V66.0318L146.219 64.4421L145.32 63.0185V62.9948H146.219L146.762 63.8726L147.282 62.9948H148.18V63.0185L147.282 64.4658L148.275 66.0318Z" fill="white"/>
<path d="M149.504 64.4658H151.419V65.1064H149.504V64.4658Z" fill="white"/>
<path d="M155.721 62.9711V66.0793H154.917V64.8455H153.877V66.0793H153.073V62.9711H153.877V64.11H154.917V62.9711H155.721Z" fill="white"/>
<path d="M159.266 66.0318V66.0793H158.392L158.203 65.6759H157.044L156.879 66.0793H156.004V66.0318L157.47 62.9236H157.824L159.266 66.0318ZM157.352 64.9878H157.919L157.635 64.2286L157.352 64.9878Z" fill="white"/>
<path d="M163.474 62.9711V66.0793H159.55V62.9711H160.353V65.3438H161.11V62.9711H161.914V65.3438H162.67V62.9711H163.474Z" fill="white"/>
<path d="M167.019 66.0318V66.0793H166.145L165.955 65.6759H164.797L164.632 66.0793H163.757V66.0318L165.223 62.9236H165.577L167.019 66.0318ZM165.105 64.9878H165.672L165.388 64.2286L165.105 64.9878Z" fill="white"/>
<path d="M168.272 62.9711H170.848V66.0793H170.045V63.7066H169.099V66.0793H168.296V62.9711H168.272Z" fill="white"/>
<path d="M174.016 64.0862C174.016 64.7743 173.543 65.2251 172.857 65.2251H172.314V66.0793H171.51V62.9711H172.881C173.567 62.9711 174.016 63.4219 174.016 64.0862ZM173.188 64.0862C173.188 63.8252 173.023 63.6591 172.763 63.6591H172.29V64.5133H172.763C173.047 64.5133 173.188 64.371 173.188 64.0862Z" fill="white"/>
<path d="M174.276 64.5133C174.276 63.5643 174.938 62.8999 175.907 62.8999C176.852 62.8999 177.538 63.5643 177.538 64.5133C177.538 65.4624 176.876 66.1268 175.907 66.1268C174.961 66.1268 174.276 65.4624 174.276 64.5133ZM176.71 64.5133C176.71 64.0151 176.403 63.6829 175.907 63.6829C175.434 63.6829 175.103 64.0151 175.103 64.5133C175.103 65.0116 175.41 65.3438 175.907 65.3438C176.379 65.3438 176.71 65.0116 176.71 64.5133Z" fill="white"/>
<path d="M180.043 65.7709V66.1268H179.287V65.7709C178.483 65.7471 177.821 65.3438 177.821 64.5133C177.821 63.6829 178.483 63.2795 179.287 63.2321V62.8999H180.043V63.2321C180.87 63.2558 181.509 63.6354 181.509 64.5133C181.509 65.3912 180.847 65.7471 180.043 65.7709ZM179.31 65.1065V63.9439C178.956 63.9676 178.649 64.0625 178.649 64.5133C178.649 64.9641 178.979 65.0828 179.31 65.1065ZM180.705 64.5133C180.705 64.0625 180.398 63.9439 180.043 63.9439V65.1065C180.374 65.0828 180.705 64.9641 180.705 64.5133Z" fill="white"/>
<path d="M183.943 65.3438V66.0793H181.958V62.9711H183.896V63.7066H182.761V64.1574H183.801V64.8692H182.761V65.3438H183.943Z" fill="white"/>
<path d="M184.321 64.5133C184.321 63.5643 184.96 62.8999 185.881 62.8999C186.709 62.8999 187.229 63.3744 187.394 64.0862H186.591C186.472 63.8252 186.236 63.6829 185.929 63.6829C185.48 63.6829 185.172 64.0151 185.172 64.5133C185.172 65.0116 185.48 65.3438 185.929 65.3438C186.26 65.3438 186.52 65.154 186.638 64.893H187.441C187.3 65.6285 186.756 66.1268 185.905 66.1268C184.96 66.1268 184.321 65.4624 184.321 64.5133Z" fill="white"/>
<path d="M187.678 64.5133C187.678 63.5643 188.316 62.8999 189.238 62.8999C190.065 62.8999 190.585 63.3744 190.751 64.0862H189.947C189.829 63.8252 189.592 63.6829 189.285 63.6829C188.836 63.6829 188.529 64.0151 188.529 64.5133C188.529 65.0116 188.836 65.3438 189.285 65.3438C189.616 65.3438 189.876 65.154 189.994 64.893H190.798C190.656 65.6285 190.112 66.1268 189.262 66.1268C188.34 66.1268 187.678 65.4624 187.678 64.5133Z" fill="white"/>
<path d="M193.894 62.9474V66.0793H193.091V65.0354V64.5134L191.46 66.0793H191.223V62.9711H192.027V63.9439L192.003 64.4896L193.611 62.9474H193.894Z" fill="white"/>
<path d="M196.92 62.9711V66.0793H196.116V65.1065H195.691L195.194 66.0793H194.344V66.0318L194.934 64.9641C194.58 64.798 194.414 64.4421 194.414 64.0625C194.414 63.5168 194.793 62.9711 195.525 62.9711H196.92ZM195.242 64.0388C195.242 64.2286 195.384 64.4421 195.62 64.4421H196.14V63.6829H195.62C195.36 63.6829 195.242 63.849 195.242 64.0388Z" fill="white"/>
<path d="M88.1897 27.2621H87.0078V54.7852H88.1897V27.2621Z" fill="white"/>
<path d="M40.2302 2.70483C19.1696 2.70483 2.10369 19.8356 2.10369 40.9762C2.10369 48.0231 4.01829 54.6429 7.32747 60.3136L33.0682 34.4751H18.366C16.7114 34.4751 15.2222 33.4786 14.584 31.9363C13.9458 30.3941 14.3004 28.6383 15.4822 27.4519L25.4807 17.4155C26.2371 16.6562 27.3007 16.2054 28.388 16.2054H56.6343C60.7708 16.2054 64.1508 19.5984 64.1508 23.7505V52.2702C64.1508 53.3617 63.7017 54.4056 62.9454 55.1886L52.9233 65.2488C51.7414 66.4352 49.9923 66.7911 48.4559 66.1504C46.9195 65.5098 45.9267 64.015 45.9267 62.3541V47.4299L19.9969 73.4109C25.8589 77.1122 32.7845 79.2714 40.2302 79.2714C61.2908 79.2714 78.3803 62.1406 78.3803 40.9762C78.3803 19.8356 61.2908 2.70483 40.2302 2.70483Z" fill="white"/>
<path d="M48.4086 62.1643C48.4086 63.6117 50.1341 64.3235 51.1505 63.3032L61.1489 53.2667C61.4562 52.9583 61.6217 52.5549 61.6217 52.1279V27.9265V23.5845C61.6217 20.8084 59.3762 18.5306 56.587 18.5306H52.2614H28.3644C27.9389 18.5306 27.5371 18.6967 27.2298 19.0052L17.2314 29.0416C16.215 30.0619 16.9241 31.7939 18.366 31.7939H39.072L8.67478 62.3304C11.1803 66.0081 14.3004 69.2349 17.8932 71.8449L48.4086 41.2135V62.1643Z" fill="white"/>
</svg>
