<svg width="199" height="82" viewBox="0 0 199 82" fill="none" xmlns="http://www.w3.org/2000/svg">
<path d="M94.879 22.588H99.8427C101.852 22.588 103.199 23.2286 103.199 25.1979C103.199 26.2656 102.703 26.9537 101.757 27.4045C103.057 27.7841 103.696 28.7569 103.696 30.0857C103.696 32.2448 101.876 33.1464 99.9846 33.1464H94.879V22.588ZM97.1954 26.8588H99.5355C100.363 26.8588 100.954 26.4792 100.954 25.6013C100.954 24.6048 100.174 24.3912 99.37 24.3912H97.1954V26.8588ZM97.1954 31.3432H99.6773C100.575 31.3432 101.379 31.0585 101.379 29.9433C101.379 28.8519 100.717 28.4248 99.7009 28.4248H97.1718V31.3432H97.1954Z" fill="#0152FF"/>
<path d="M111.259 29.2552L114.214 33.1701H111.378L108.73 29.3738H107.596V33.1701H105.256V22.588H110.007C112.654 22.588 113.67 24.2726 113.67 25.9809C113.67 27.4282 112.914 28.8756 111.165 29.2552H111.259ZM107.596 24.3912V27.5706H109.392C110.503 27.5706 111.425 27.3096 111.425 25.9809C111.425 24.6047 110.503 24.3912 109.392 24.3912H107.596Z" fill="#0152FF"/>
<path d="M115.916 22.588H118.232V33.1701H115.916V22.588Z" fill="#0152FF"/>
<path d="M129.531 30.489C128.633 32.1973 126.789 33.3362 124.756 33.3362C121.754 33.3362 119.32 30.8686 119.32 27.8553C119.32 24.842 121.778 22.3981 124.756 22.3981C126.789 22.3981 128.585 23.537 129.531 25.1742C128.609 25.6487 128.538 25.6962 127.498 26.2182C126.954 25.2691 125.938 24.6522 124.756 24.6522C122.983 24.6522 121.565 26.0758 121.565 27.8553C121.565 29.6586 122.983 31.0584 124.756 31.0584C125.938 31.0584 127.12 30.4653 127.545 29.4687H127.309C126.836 29.4687 125.749 29.4925 125.158 29.4925C124.874 29.4925 124.756 29.4925 124.756 29.4687V27.5231C126.245 27.5231 128.325 27.5469 130.145 27.5469C130.145 27.8316 130.098 29.7772 129.531 30.489Z" fill="#0152FF"/>
<path d="M138.3 28.6146H133.407V33.1227H131.138V22.5168H133.407V26.3605H138.3V22.5405H140.569V33.1227H138.3V28.6146Z" fill="#0152FF"/>
<path d="M145.108 24.5336H141.751V22.588H150.733V24.5336H147.4V33.1464H145.084V24.5336H145.108Z" fill="#0152FF"/>
<path d="M104.239 44.0845C103.341 45.7928 101.497 46.9317 99.4645 46.9317C96.4626 46.9317 94.028 44.4641 94.028 41.4508C94.028 38.4375 96.4863 35.9936 99.4645 35.9936C101.497 35.9936 103.294 37.1325 104.239 38.7697C103.317 39.2442 103.246 39.2917 102.206 39.8137C101.663 38.8646 100.646 38.2477 99.4645 38.2477C97.6918 38.2477 96.2735 39.6713 96.2735 41.4508C96.2735 43.2541 97.6918 44.6539 99.4645 44.6539C100.646 44.6539 101.828 44.0608 102.254 43.0642H102.017C101.545 43.0642 100.457 43.088 99.8664 43.088C99.5827 43.088 99.4645 43.088 99.4645 43.0642V41.1186C100.954 41.1186 103.034 41.1424 104.854 41.1424C104.854 41.4034 104.783 43.3727 104.239 44.0845Z" fill="#20C4F4"/>
<path d="M105.847 46.6707V36.1123H108.116V44.7014H113.529V46.647H105.847V46.6707Z" fill="#20C4F4"/>
<path d="M119.911 46.8843C116.909 46.8843 114.474 44.4404 114.474 41.4271C114.474 38.39 116.909 35.9462 119.911 35.9462C122.912 35.9462 125.371 38.39 125.371 41.4271C125.371 44.4404 122.889 46.8843 119.911 46.8843ZM116.696 41.4034C116.696 43.1591 118.161 44.6302 119.911 44.6302C121.66 44.6302 123.102 43.1591 123.102 41.4034C123.102 39.6476 121.66 38.1528 119.911 38.1528C118.138 38.1765 116.696 39.6476 116.696 41.4034Z" fill="#20C4F4"/>
<path d="M126.482 36.1597H131.445C133.455 36.1597 134.802 36.8003 134.802 38.7697C134.802 39.8374 134.306 40.5255 133.36 40.9763C134.66 41.3559 135.298 42.3287 135.298 43.6574C135.298 45.8166 133.478 46.7182 131.587 46.7182H126.482V36.1597ZM128.798 40.4543H131.138C131.965 40.4543 132.556 40.0747 132.556 39.1968C132.556 38.2002 131.8 37.9867 130.973 37.9867H128.798V40.4543ZM128.798 44.9387H131.28C132.178 44.9387 132.982 44.6539 132.982 43.5388C132.982 42.4473 132.32 42.0203 131.304 42.0203H128.774V44.9387H128.798Z" fill="#20C4F4"/>
<path d="M135.96 46.7419L140.735 36.1834H143.075L147.779 46.7419H145.533L144.493 44.3929H139.175L138.064 46.7419H135.96ZM141.94 38.1765L140.167 42.2575H143.666L141.94 38.1765Z" fill="#20C4F4"/>
<path d="M148.653 46.6707V36.1123H150.922V44.7014H156.335V46.647H148.653V46.6707Z" fill="#20C4F4"/>
<path d="M93.8626 60.3374L98.6373 49.7789H100.977L105.681 60.3374H103.436L102.396 57.9884H97.0772L95.9663 60.3374H93.8626ZM99.8427 51.7483L98.07 55.8293H101.568L99.8427 51.7483Z" fill="#0152FF"/>
<path d="M111.567 60.3611C108.612 60.3611 106.225 57.9647 106.225 54.9988C106.225 52.0567 108.612 49.6366 111.567 49.6366C113.599 49.6366 115.301 50.7517 116.2 52.3889C115.301 52.8634 115.23 52.9109 114.214 53.3854C113.694 52.4838 112.701 51.8669 111.567 51.8669C109.841 51.8669 108.447 53.2905 108.447 54.9988C108.447 56.7309 109.841 58.1308 111.567 58.1308C112.749 58.1308 113.789 57.4902 114.309 56.4936C115.301 57.0156 115.349 57.0631 116.294 57.4902C115.396 59.2222 113.647 60.3611 111.567 60.3611Z" fill="#0152FF"/>
<path d="M122.511 60.3611C119.556 60.3611 117.169 57.9647 117.169 54.9988C117.169 52.0567 119.556 49.6366 122.511 49.6366C124.543 49.6366 126.245 50.7517 127.143 52.3889C126.245 52.8634 126.174 52.9109 125.158 53.3854C124.638 52.4838 123.645 51.8669 122.511 51.8669C120.785 51.8669 119.391 53.2905 119.391 54.9988C119.391 56.7309 120.785 58.1308 122.511 58.1308C123.692 58.1308 124.733 57.4902 125.253 56.4936C126.245 57.0156 126.293 57.0631 127.238 57.4902C126.316 59.2222 124.591 60.3611 122.511 60.3611Z" fill="#0152FF"/>
<path d="M133.36 60.4797C130.358 60.4797 127.924 58.0359 127.924 55.0226C127.924 51.9855 130.358 49.5417 133.36 49.5417C136.362 49.5417 138.82 51.9855 138.82 55.0226C138.82 58.0359 136.338 60.4797 133.36 60.4797ZM130.122 54.9988C130.122 56.7546 131.587 58.2257 133.336 58.2257C135.086 58.2257 136.527 56.7546 136.527 54.9988C136.527 53.2431 135.086 51.7483 133.336 51.7483C131.587 51.7483 130.122 53.2431 130.122 54.9988Z" fill="#0152FF"/>
<path d="M149.102 56.3275C149.102 59.1985 147.424 60.5746 144.611 60.5746C141.751 60.5746 140.12 59.2222 140.12 56.3275V49.7552H142.437V56.3275C142.437 57.4902 142.72 58.629 144.611 58.629C146.266 58.629 146.786 57.9172 146.786 56.3275V49.7552H149.102V56.3275Z" fill="#0152FF"/>
<path d="M152.884 53.0295V60.3374H150.851V49.7078H153.499L158.203 56.3275V49.7078H160.164V60.3374H158.203L152.884 53.0295Z" fill="#0152FF"/>
<path d="M164.679 51.7245H161.323V49.7789H170.305V51.7245H166.972V60.3374H164.655V51.7245H164.679Z" fill="#0152FF"/>
<path d="M171.652 49.7552H173.968V60.3374H171.652V49.7552Z" fill="#0152FF"/>
<path d="M177.703 53.0295V60.3374H175.67V49.7078H178.318L183.021 56.3275V49.7078H184.983V60.3374H183.021L177.703 53.0295Z" fill="#0152FF"/>
<path d="M196.211 57.68C195.313 59.3883 193.469 60.5272 191.436 60.5272C188.434 60.5272 186 58.0596 186 55.0463C186 52.033 188.458 49.5891 191.436 49.5891C193.469 49.5891 195.265 50.728 196.211 52.3652C195.289 52.8397 195.218 52.8872 194.178 53.4091C193.634 52.4601 192.618 51.8432 191.436 51.8432C189.663 51.8432 188.245 53.2668 188.245 55.0463C188.245 56.8495 189.663 58.2494 191.436 58.2494C192.618 58.2494 193.8 57.6562 194.225 56.6597H193.989C193.516 56.6597 192.429 56.6834 191.838 56.6834C191.554 56.6834 191.436 56.6834 191.436 56.6597V54.7141C192.925 54.7141 195.005 54.7378 196.825 54.7378C196.802 54.9988 196.754 56.9682 196.211 57.68Z" fill="#0152FF"/>
<path d="M96.2263 65.1777C96.2263 65.7234 95.8008 66.0793 95.2099 66.0793H93.7444V62.9711H95.0444C95.6826 62.9711 96.0844 63.327 96.0844 63.8727C96.0844 64.11 95.9899 64.3235 95.7772 64.4659C96.0372 64.5845 96.2263 64.8692 96.2263 65.1777ZM94.9735 63.6591H94.548V64.1811H94.9735C95.1626 64.1811 95.2808 64.0862 95.2808 63.9201C95.2572 63.754 95.1626 63.6591 94.9735 63.6591ZM95.399 65.1065C95.399 64.9404 95.2808 64.8455 95.0917 64.8455H94.548V65.3675H95.0917C95.2808 65.3675 95.399 65.2726 95.399 65.1065Z" fill="#20C4F4"/>
<path d="M99.5827 66.0318V66.0793H98.7082L98.5191 65.6759H97.3608L97.1954 66.0793H96.3208V66.0318L97.7863 62.9236H98.1409L99.5827 66.0318ZM97.6445 64.9878H98.2118L97.9281 64.2286L97.6445 64.9878Z" fill="#20C4F4"/>
<path d="M103.79 62.9711V66.0793H99.8664V62.9711H100.67V65.3437H101.426V62.9711H102.23V65.3437H102.986V62.9711H103.79Z" fill="#20C4F4"/>
<path d="M107.997 65.059C107.997 65.6047 107.619 66.0793 106.887 66.0793H105.492V62.9711H107.714V63.6829H106.272V64.0862H106.863C107.643 64.0862 107.997 64.5133 107.997 65.059ZM107.194 65.059C107.194 64.8929 107.076 64.7506 106.863 64.7506H106.296V65.3675H106.863C107.076 65.3675 107.194 65.2014 107.194 65.059Z" fill="#20C4F4"/>
<path d="M111.141 62.9473V66.0793H110.338V65.0353V64.5133L108.707 66.0793H108.447V62.9711H109.25V63.9439L109.227 64.4896L110.834 62.9473H111.141Z" fill="#20C4F4"/>
<path d="M114.119 65.1777C114.119 65.6997 113.694 66.1267 112.914 66.1267C112.205 66.1267 111.661 65.7234 111.661 64.9641H112.394C112.418 65.2251 112.583 65.4149 112.89 65.4149C113.221 65.4149 113.339 65.2488 113.339 65.0828C113.339 64.8929 113.198 64.7506 112.938 64.7506H112.607V64.1337H112.938C113.174 64.1337 113.316 64.015 113.316 63.849C113.316 63.6829 113.174 63.5642 112.914 63.5642C112.654 63.5642 112.512 63.6829 112.489 63.8252H111.779C111.779 63.2321 112.229 62.8999 112.914 62.8999C113.718 62.8999 114.049 63.3507 114.049 63.8252C114.049 64.0862 113.907 64.2998 113.694 64.4421C113.954 64.5845 114.119 64.8692 114.119 65.1777Z" fill="#20C4F4"/>
<path d="M117.287 62.9711V66.0793H116.483V64.8455H115.443V66.0793H114.639V62.9711H115.443V64.11H116.483V62.9711H117.287Z" fill="#20C4F4"/>
<path d="M119.911 65.3437V66.0793H117.925V62.9711H119.863V63.7066H118.729V64.1574H119.769V64.8692H118.729V65.3437H119.911Z" fill="#20C4F4"/>
<path d="M120.265 64.5133C120.265 63.5642 120.903 62.8999 121.825 62.8999C122.652 62.8999 123.172 63.3744 123.338 64.0862H122.534C122.416 63.8252 122.18 63.6829 121.872 63.6829C121.423 63.6829 121.116 64.015 121.116 64.5133C121.116 65.0116 121.423 65.3437 121.872 65.3437C122.203 65.3437 122.463 65.1539 122.582 64.8929H123.385C123.243 65.6285 122.7 66.1267 121.849 66.1267C120.927 66.1267 120.265 65.4624 120.265 64.5133Z" fill="#20C4F4"/>
<path d="M127.309 65.1777C127.309 65.7234 126.883 66.0793 126.293 66.0793H124.827V62.9711H126.127C126.765 62.9711 127.167 63.327 127.167 63.8727C127.167 64.11 127.073 64.3235 126.86 64.4659C127.143 64.5845 127.309 64.8692 127.309 65.1777ZM126.056 63.6591H125.631V64.1811H126.056C126.245 64.1811 126.363 64.0862 126.363 63.9201C126.34 63.754 126.245 63.6591 126.056 63.6591ZM126.482 65.1065C126.482 64.9404 126.363 64.8455 126.174 64.8455H125.631V65.3675H126.174C126.363 65.3675 126.482 65.2726 126.482 65.1065Z" fill="#20C4F4"/>
<path d="M131.729 65.3437V66.7436H130.973V66.0793H128.869V62.9711H129.673V65.3437H130.571V62.9711H131.375V65.3437H131.729Z" fill="#20C4F4"/>
<path d="M134.944 62.9473V66.0793H134.14V65.0353V64.5133L132.509 66.0793H132.249V62.9711H133.053V63.9439L133.029 64.4896L134.636 62.9473H134.944Z" fill="#20C4F4"/>
<path d="M137.638 65.7708V66.1267H136.882V65.7708C136.078 65.7471 135.416 65.3437 135.416 64.5133C135.416 63.6829 136.078 63.2795 136.882 63.2321V62.8999H137.638V63.2321C138.466 63.2558 139.104 63.6354 139.104 64.5133C139.08 65.3912 138.418 65.7471 137.638 65.7708ZM136.882 65.1065V63.9439C136.527 63.9676 136.22 64.0625 136.22 64.5133C136.22 64.9641 136.575 65.0828 136.882 65.1065ZM138.277 64.5133C138.277 64.0625 137.969 63.9439 137.615 63.9439V65.1065C137.946 65.0828 138.277 64.9641 138.277 64.5133Z" fill="#20C4F4"/>
<path d="M142.082 64.0862C142.082 64.7743 141.609 65.2251 140.924 65.2251H140.38V66.0793H139.577V62.9711H140.947C141.609 62.9711 142.082 63.4219 142.082 64.0862ZM141.255 64.0862C141.255 63.8252 141.089 63.6591 140.829 63.6591H140.357V64.5133H140.829C141.089 64.5133 141.255 64.3709 141.255 64.0862Z" fill="#20C4F4"/>
<path d="M145.226 66.0318V66.0793H144.351L144.162 65.6759H143.004L142.838 66.0793H141.964V66.0318L143.429 62.9236H143.784L145.226 66.0318ZM143.311 64.9878H143.878L143.595 64.2286L143.311 64.9878Z" fill="#20C4F4"/>
<path d="M148.275 66.0318V66.0793H147.353L146.739 65.059L146.124 66.0793H145.202V66.0318L146.219 64.4421L145.32 63.0185V62.9948H146.219L146.762 63.8727L147.282 62.9948H148.18V63.0185L147.282 64.4659L148.275 66.0318Z" fill="#20C4F4"/>
<path d="M149.504 64.4659H151.419V65.1065H149.504V64.4659Z" fill="#20C4F4"/>
<path d="M155.721 62.9711V66.0793H154.917V64.8455H153.877V66.0793H153.073V62.9711H153.877V64.11H154.917V62.9711H155.721Z" fill="#20C4F4"/>
<path d="M159.266 66.0318V66.0793H158.392L158.203 65.6759H157.044L156.879 66.0793H156.004V66.0318L157.47 62.9236H157.824L159.266 66.0318ZM157.352 64.9878H157.919L157.635 64.2286L157.352 64.9878Z" fill="#20C4F4"/>
<path d="M163.474 62.9711V66.0793H159.55V62.9711H160.353V65.3437H161.11V62.9711H161.914V65.3437H162.67V62.9711H163.474Z" fill="#20C4F4"/>
<path d="M167.019 66.0318V66.0793H166.145L165.955 65.6759H164.797L164.632 66.0793H163.757V66.0318L165.223 62.9236H165.577L167.019 66.0318ZM165.105 64.9878H165.672L165.388 64.2286L165.105 64.9878Z" fill="#20C4F4"/>
<path d="M168.272 62.9711H170.848V66.0793H170.045V63.7066H169.099V66.0793H168.296V62.9711H168.272Z" fill="#20C4F4"/>
<path d="M174.016 64.0862C174.016 64.7743 173.543 65.2251 172.857 65.2251H172.314V66.0793H171.51V62.9711H172.881C173.567 62.9711 174.016 63.4219 174.016 64.0862ZM173.188 64.0862C173.188 63.8252 173.023 63.6591 172.763 63.6591H172.29V64.5133H172.763C173.047 64.5133 173.188 64.3709 173.188 64.0862Z" fill="#20C4F4"/>
<path d="M174.276 64.5133C174.276 63.5642 174.938 62.8999 175.907 62.8999C176.852 62.8999 177.538 63.5642 177.538 64.5133C177.538 65.4624 176.876 66.1267 175.907 66.1267C174.961 66.1267 174.276 65.4624 174.276 64.5133ZM176.71 64.5133C176.71 64.015 176.403 63.6829 175.907 63.6829C175.434 63.6829 175.103 64.015 175.103 64.5133C175.103 65.0116 175.41 65.3437 175.907 65.3437C176.379 65.3437 176.71 65.0116 176.71 64.5133Z" fill="#20C4F4"/>
<path d="M180.043 65.7708V66.1267H179.287V65.7708C178.483 65.7471 177.821 65.3437 177.821 64.5133C177.821 63.6829 178.483 63.2795 179.287 63.2321V62.8999H180.043V63.2321C180.87 63.2558 181.509 63.6354 181.509 64.5133C181.509 65.3912 180.847 65.7471 180.043 65.7708ZM179.31 65.1065V63.9439C178.956 63.9676 178.649 64.0625 178.649 64.5133C178.649 64.9641 178.979 65.0828 179.31 65.1065ZM180.705 64.5133C180.705 64.0625 180.398 63.9439 180.043 63.9439V65.1065C180.374 65.0828 180.705 64.9641 180.705 64.5133Z" fill="#20C4F4"/>
<path d="M183.943 65.3437V66.0793H181.958V62.9711H183.896V63.7066H182.761V64.1574H183.801V64.8692H182.761V65.3437H183.943Z" fill="#20C4F4"/>
<path d="M184.321 64.5133C184.321 63.5642 184.96 62.8999 185.881 62.8999C186.709 62.8999 187.229 63.3744 187.394 64.0862H186.591C186.472 63.8252 186.236 63.6829 185.929 63.6829C185.48 63.6829 185.172 64.015 185.172 64.5133C185.172 65.0116 185.48 65.3437 185.929 65.3437C186.26 65.3437 186.52 65.1539 186.638 64.8929H187.441C187.3 65.6285 186.756 66.1267 185.905 66.1267C184.96 66.1267 184.321 65.4624 184.321 64.5133Z" fill="#20C4F4"/>
<path d="M187.678 64.5133C187.678 63.5642 188.316 62.8999 189.238 62.8999C190.065 62.8999 190.585 63.3744 190.751 64.0862H189.947C189.829 63.8252 189.592 63.6829 189.285 63.6829C188.836 63.6829 188.529 64.015 188.529 64.5133C188.529 65.0116 188.836 65.3437 189.285 65.3437C189.616 65.3437 189.876 65.1539 189.994 64.8929H190.798C190.656 65.6285 190.112 66.1267 189.262 66.1267C188.34 66.1267 187.678 65.4624 187.678 64.5133Z" fill="#20C4F4"/>
<path d="M193.894 62.9473V66.0793H193.091V65.0353V64.5133L191.46 66.0793H191.223V62.9711H192.027V63.9439L192.003 64.4896L193.611 62.9473H193.894Z" fill="#20C4F4"/>
<path d="M196.92 62.9711V66.0793H196.116V65.1065H195.691L195.194 66.0793H194.344V66.0318L194.934 64.9641C194.58 64.798 194.414 64.4421 194.414 64.0625C194.414 63.5168 194.793 62.9711 195.525 62.9711H196.92ZM195.242 64.0388C195.242 64.2286 195.384 64.4421 195.62 64.4421H196.14V63.6829H195.62C195.36 63.6829 195.242 63.849 195.242 64.0388Z" fill="#20C4F4"/>
<path d="M88.1897 27.2622H87.0078V54.7853H88.1897V27.2622Z" fill="#0152FF"/>
<path d="M40.2302 2.70486C19.1696 2.70486 2.10369 19.8357 2.10369 40.9763C2.10369 48.0232 4.01829 54.6429 7.32747 60.3137L33.0682 34.4751H18.366C16.7114 34.4751 15.2222 33.4786 14.584 31.9363C13.9458 30.3941 14.3004 28.6383 15.4822 27.452L25.4807 17.4155C26.2371 16.6563 27.3007 16.2054 28.388 16.2054H56.6343C60.7708 16.2054 64.1508 19.5984 64.1508 23.7506V52.2703C64.1508 53.3617 63.7017 54.4057 62.9454 55.1887L52.9233 65.2488C51.7414 66.4352 49.9923 66.7911 48.4559 66.1505C46.9195 65.5098 45.9267 64.015 45.9267 62.3542V47.43L19.9969 73.4109C25.8589 77.1123 32.7845 79.2714 40.2302 79.2714C61.2908 79.2714 78.3803 62.1406 78.3803 40.9763C78.3803 19.8357 61.2908 2.70486 40.2302 2.70486Z" fill="#0152FF"/>
<path d="M48.4086 62.1643C48.4086 63.6117 50.1341 64.3235 51.1505 63.3032L61.1489 53.2668C61.4562 52.9583 61.6217 52.555 61.6217 52.1279V27.9265V23.5845C61.6217 20.8084 59.3762 18.5307 56.587 18.5307H52.2614H28.3644C27.9389 18.5307 27.5371 18.6968 27.2298 19.0052L17.2314 29.0417C16.215 30.0619 16.9241 31.794 18.366 31.794H39.072L8.67478 62.3304C11.1803 66.0081 14.3004 69.2349 17.8932 71.8449L48.4086 41.2135V62.1643Z" fill="#20C4F4"/>
</svg>
