<svg width="12" height="11" viewBox="0 0 12 11" fill="none" xmlns="http://www.w3.org/2000/svg">
<path fill-rule="evenodd" clip-rule="evenodd" d="M6.00004 1.16667C3.60681 1.16667 1.66671 3.10677 1.66671 5.5C1.66671 7.89323 3.60681 9.83333 6.00004 9.83333C8.39328 9.83333 10.3334 7.89323 10.3334 5.5C10.3334 3.10677 8.39328 1.16667 6.00004 1.16667ZM0.583374 5.5C0.583374 2.50846 3.0085 0.0833335 6.00004 0.0833335C8.99158 0.0833335 11.4167 2.50846 11.4167 5.5C11.4167 8.49154 8.99158 10.9167 6.00004 10.9167C3.0085 10.9167 0.583374 8.49154 0.583374 5.5Z" fill="#0152FF"/>
<path fill-rule="evenodd" clip-rule="evenodd" d="M6.00004 4.41667C6.2992 4.41667 6.54171 4.65918 6.54171 4.95833V8.20833C6.54171 8.50749 6.2992 8.75 6.00004 8.75C5.70089 8.75 5.45837 8.50749 5.45837 8.20833V4.95833C5.45837 4.65918 5.70089 4.41667 6.00004 4.41667Z" fill="#0152FF"/>
<path d="M6.81254 3.0625C6.81254 3.51123 6.44877 3.875 6.00004 3.875C5.55131 3.875 5.18754 3.51123 5.18754 3.0625C5.18754 2.61377 5.55131 2.25 6.00004 2.25C6.44877 2.25 6.81254 2.61377 6.81254 3.0625Z" fill="#0152FF"/>
</svg>
